<?xml version="1.0" encoding="UTF-8" standalone="no"?>
<svg
   preserveAspectRatio="xMidYMid"
   width="135.955"
   height="102.559"
   viewBox="0 0 135.955 102.559"
   version="1.1"
   id="svg78"
   sodipodi:docname="anilist.svg"
   inkscape:version="1.1.2 (0a00cf5339, 2022-02-04, custom)"
   xmlns:inkscape="http://www.inkscape.org/namespaces/inkscape"
   xmlns:sodipodi="http://sodipodi.sourceforge.net/DTD/sodipodi-0.dtd"
   xmlns="http://www.w3.org/2000/svg"
   xmlns:svg="http://www.w3.org/2000/svg">
  <sodipodi:namedview
     id="namedview80"
     pagecolor="#ffffff"
     bordercolor="#666666"
     borderopacity="1.0"
     inkscape:pageshadow="2"
     inkscape:pageopacity="0.0"
     inkscape:pagecheckerboard="0"
     showgrid="false"
     fit-margin-top="0"
     fit-margin-left="0"
     fit-margin-right="0"
     fit-margin-bottom="0"
     inkscape:zoom="2.4215116"
     inkscape:cx="38.612245"
     inkscape:cy="-22.506603"
     inkscape:window-width="1920"
     inkscape:window-height="1048"
     inkscape:window-x="1920"
     inkscape:window-y="32"
     inkscape:window-maximized="1"
     inkscape:current-layer="svg78" />
  <defs
     id="defs70">
    <style
       id="style68">
      .cls-1 {
        fill: #02a9ff;
      }

      .cls-1, .cls-2 {
        fill-rule: evenodd;
      }

      .cls-2 {
        fill: #fefefe;
      }
    </style>
  </defs>
  <g
     id="g76"
     transform="translate(-18.331,-34.792)">
    <path
       d="M 111.322,111.157 V 41.029 c 0,-4.019 -2.217,-6.237 -6.236,-6.237 H 91.365 c -4.019,0 -6.237,2.218 -6.237,6.237 0,0 0,15.308 0,33.304 0,0.938 9.037,5.293 9.273,6.214 6.885,26.902 1.496,48.433 -5.031,49.438 10.672,0.528 11.846,5.659 3.897,2.153 1.216,-14.354 5.961,-14.326 19.602,-0.528 0.117,0.119 2.797,5.741 2.964,5.741 15.337,0 32.217,0 32.217,0 4.019,0 6.236,-2.217 6.236,-6.236 v -13.721 c 0,-4.019 -2.217,-6.237 -6.236,-6.237 z"
       class="cls-1"
       id="path72" />
    <path
       d="M 54.365,34.792 18.331,137.351 h 27.996 l 6.098,-17.74 h 30.49 l 5.96,17.74 h 27.857 L 80.836,34.792 Z m 4.435,62.09 8.731,-28.412 9.563,28.412 z"
       class="cls-2"
       id="path74" />
  </g>
</svg>
